<!-- icon666.com - MILLIONS OF FREE VECTOR ICONS --><svg version="1.1" id="Capa_1" xmlns="http://www.w3.org/2000/svg" xmlns:xlink="http://www.w3.org/1999/xlink" x="0px" y="0px" viewBox="0 0 512 512" style="enable-background:new 0 0 512 512;" xml:space="preserve"><g><g><path d="M482,199.992h-36v-50c0-16.542-13.458-30-30-30h-27.577l68.789-68.789c11.696-11.696,11.696-30.727,0-42.423 c-11.696-11.695-30.727-11.696-42.423,0L286,137.578V89.992c0-16.542-13.458-30-30-30h-60c-16.542,0-30,13.458-30,30v32.018 c-6.54-1.33-13.226-2.018-20-2.018c-48.026,0-88.671,33.812-97.994,80H30c-16.542,0-30,13.458-30,30v26 c0,13.549,9.031,25.023,21.388,28.734l35.784,202.636c2.597,14.271,15.011,24.63,29.519,24.63h338.62 c14.507,0,26.922-10.358,29.528-24.681l35.774-202.585C502.969,281.015,512,269.54,512,255.992v-26 C512,213.45,498.542,199.992,482,199.992z M416,139.992c5.514,0,10,4.486,10,10v50H308.422l60-60H416z M428.931,22.923 c3.897-3.898,10.24-3.899,14.138,0c3.898,3.897,3.898,10.24,0,14.138c0,0-171.247,171.247-180,180 c-3.911,3.91-10.226,3.912-14.138,0c-3.909-3.908-3.912-10.226-0.001-14.137L428.931,22.923z M186,89.992c0-5.515,4.486-10,10-10 h60c5.514,0,10,4.486,10,10v67.587l-26.646,26.637c-9.535-24.718-28.723-45.124-53.354-55.892V89.992z M146,139.992 c37.194,0,68.507,25.438,77.469,60H68.508C77.421,165.105,108.97,139.992,146,139.992z M492,255.992c0,5.514-4.486,10-10,10H296 c-5.523,0-10,4.477-10,10s4.477,10,10,10h174.079l-34.928,197.79c-0.866,4.757-5.005,8.21-9.842,8.21H86.69 c-4.837,0-8.976-3.453-9.833-8.159L41.921,285.992H216c5.523,0,10-4.477,10-10s-4.477-10-10-10H30c-5.514,0-10-4.486-10-10v-26 c0-5.514,4.486-10,10-10c10.188,0,181.662,0,197.703,0c1.471,4.169,3.866,7.992,7.086,11.211 c11.727,11.726,30.692,11.729,42.422,0l11.211-11.211H482c5.514,0,10,4.486,10,10V255.992z" fill="#000000" style="fill: rgb(255, 255, 255);"></path></g></g><g><g><path d="M256,325.992c-5.523,0-10,4.477-10,10v106c0,5.523,4.477,10,10,10s10-4.477,10-10v-106 C266,330.469,261.523,325.992,256,325.992z" fill="#000000" style="fill: rgb(255, 255, 255);"></path></g></g><g><g><path d="M316,325.992c-5.523,0-10,4.477-10,10v106c0,5.522,4.477,10,10,10s10-4.477,10-10v-106 C326,330.469,321.523,325.992,316,325.992z" fill="#000000" style="fill: rgb(255, 255, 255);"></path></g></g><g><g><path d="M376,325.992c-5.523,0-10,4.477-10,10v106c0,5.522,4.477,10,10,10s10-4.477,10-10v-106 C386,330.469,381.523,325.992,376,325.992z" fill="#000000" style="fill: rgb(255, 255, 255);"></path></g></g><g><g><path d="M196,325.992c-5.523,0-10,4.477-10,10v106c0,5.523,4.477,10,10,10s10-4.477,10-10v-106 C206,330.469,201.523,325.992,196,325.992z" fill="#000000" style="fill: rgb(255, 255, 255);"></path></g></g><g><g><path d="M136,325.992c-5.523,0-10,4.477-10,10v106c0,5.523,4.477,10,10,10s10-4.477,10-10v-106 C146,330.469,141.523,325.992,136,325.992z" fill="#000000" style="fill: rgb(255, 255, 255);"></path></g></g><g><g><path d="M256,265.992c-5.52,0-10,4.48-10,10c0,5.52,4.48,10,10,10s10-4.48,10-10C266,270.472,261.52,265.992,256,265.992z" fill="#000000" style="fill: rgb(255, 255, 255);"></path></g></g></svg>