<svg xmlns="http://www.w3.org/2000/svg" viewBox="0 0 261.26 113.73"><defs><style>.cls-1{fill:#fff;}</style></defs><g id="Слой_2" data-name="Слой 2"><g id="Слой_1-2" data-name="Слой 1"><path class="cls-1" d="M21.08,66.71H.2C.76,44.9,1.31,23.08,1.86,1.11L10.17.68C14.62.47,19.07.31,23.52,0A1.92,1.92,0,0,1,25.75,1.3c4.77,10,14.91,31.06,15.39,31.51.25-10.27.49-20.54.74-31L63.76,1.1c-.11,2.29-.2,4.46-.31,6.62-.3,5.65-.62,11.29-.92,16.93q-.7,13-1.4,25.94c-.21,4-.43,8.07-.58,12.11,0,.95-.27,1.32-1.33,1.4Q49.05,65,38.89,66c-2.7.26-2.71.33-3.67-2.15-3.87-10-11.79-30.43-11.9-30.69C23.24,33.14,21.75,55.46,21.08,66.71Z"/><path class="cls-1" d="M170,44.17l10.83,19.28-8.66,1.73c-3.57.7-7.16,1.36-10.72,2.1-.81.17-1.21.09-1.52-.79-2-5.75-4.16-11.48-6.18-17.23A1.44,1.44,0,0,0,152,48.1c-1.4.11-2.82,0-4.37,0-.29,6.44-.56,12.7-.84,19H127.34c0-2,0-4,0-6,.2-10.3.39-20.59.63-30.89.18-8,.45-16,.63-24.07a1.49,1.49,0,0,1,1.19-1.63,70.18,70.18,0,0,1,22-3.46A37.92,37.92,0,0,1,167.7,3.84,21.78,21.78,0,0,1,181,26.64c-.47,4.3-1.39,8.43-4.32,11.76a59.43,59.43,0,0,1-5.09,4.67A16,16,0,0,1,170,44.17ZM148.18,34a14.17,14.17,0,0,0,8.11-1.63A8.53,8.53,0,0,0,158,18.75c-2.49-2.39-5.56-2.29-8.67-1.68-.21,0-.44.53-.46.82-.19,3.8-.34,7.61-.5,11.41C148.33,30.83,148.25,32.36,148.18,34Z"/><path class="cls-1" d="M65.39,33.75c.42-9.4,5.06-18.7,15.17-24.86A27,27,0,0,1,97.2,5.27,30.54,30.54,0,0,1,113,10.67c6.33,4.58,9.74,11,10.87,18.56,1.27,8.54-.15,16.58-5,23.86a29.21,29.21,0,0,1-42.83,6C69.13,53.31,65.39,45.16,65.39,33.75Zm20.1,2.68a23.75,23.75,0,0,0,.88,3.91c1.23,3.31,3.35,5.82,7.16,6.12a8.57,8.57,0,0,0,9-5.2,12,12,0,0,0,0-10.62,8.49,8.49,0,0,0-12.39-3.79C86.82,28.84,85.59,32,85.49,36.43Z"/><path class="cls-1" d="M255.89,21.47c-3-.65-6-1.4-8.93-1.88a23.84,23.84,0,0,0-9.84.35,6.33,6.33,0,0,0-2.38,1.25,2.07,2.07,0,0,0,.3,3.44,10.79,10.79,0,0,0,3.69,1.19,54.49,54.49,0,0,0,5.72.25c6.64.12,12,2.42,15.13,8.68a19.39,19.39,0,0,1,1.62,10A22.45,22.45,0,0,1,255.51,59c-3.84,4.23-8.78,6.38-14.28,7.57-6.76,1.46-13.19.28-19.51-2.12-2.26-.86-4.49-1.79-6.71-2.75a1.16,1.16,0,0,1-.61-.92c.6-5.85,1.26-11.69,1.91-17.54,0,0,.05,0-.12.1,3.06,1.1,5.94,2.34,8.94,3.17a28.36,28.36,0,0,0,12.05.87,6.7,6.7,0,0,0,2.52-1,2.35,2.35,0,0,0-.06-4.13A12.36,12.36,0,0,0,235.47,41c-2.4-.31-4.86-.16-7.25-.52a16.43,16.43,0,0,1-13.67-14.28c-1.77-12.72,6.55-21.95,17.52-24.92A36.21,36.21,0,0,1,244.16.39a38.66,38.66,0,0,1,12.63,2.76c.5.21.91.36.84,1.06C257.06,9.9,256.52,15.6,256,21.3,256,21.37,255.9,21.44,255.89,21.47Z"/><path class="cls-1" d="M209.93,3c-.22,2.85-.42,5.48-.63,8.11L208,27.69q-.8,9.78-1.59,19.54-.54,6.6-1.06,13.19c-.06.8-.17,1.6-.21,2.4-.09,1.78.29,1.69-1.92,1.79-5.34.24-10.67.54-16,.81l-1.14,0V4.3Z"/><path class="cls-1" d="M0,86.23a1.88,1.88,0,0,1,.15-.74,1.9,1.9,0,0,1,.4-.61,1.75,1.75,0,0,1,.61-.42,2,2,0,0,1,.75-.14,2.14,2.14,0,0,1,.76.14,1.81,1.81,0,0,1,.6.42,2.11,2.11,0,0,1,.41.61,2.07,2.07,0,0,1,.14.74v4.19a4.37,4.37,0,0,0,1.27,3.07,4.67,4.67,0,0,0,1.39.94,4.3,4.3,0,0,0,1.72.35,4.36,4.36,0,0,0,1.69-.34,4.58,4.58,0,0,0,1.39-.93,4.1,4.1,0,0,0,.93-1.38,4.18,4.18,0,0,0,.34-1.69V86.23a1.88,1.88,0,0,1,.15-.74,2,2,0,0,1,.42-.61,1.85,1.85,0,0,1,.61-.42,2.05,2.05,0,0,1,1.49,0,1.85,1.85,0,0,1,.61.42,2.11,2.11,0,0,1,.41.61,1.89,1.89,0,0,1,.16.74V103a1.86,1.86,0,0,1-.16.74,2,2,0,0,1-.41.61A1.92,1.92,0,0,1,12.55,103v-5.6A7.8,7.8,0,0,1,8.2,98.62,7.9,7.9,0,0,1,5,98,8.43,8.43,0,0,1,.65,93.6,7.9,7.9,0,0,1,0,90.42Z"/><path class="cls-1" d="M36.41,104.91a1.82,1.82,0,0,1-1.36-.56A2,2,0,0,1,34.5,103a8.53,8.53,0,0,1-2.68,1.44,9.78,9.78,0,0,1-3.07.46,9.13,9.13,0,0,1-3.71-.77A9.71,9.71,0,0,1,19.92,99a9.13,9.13,0,0,1-.77-3.71V86.23a1.91,1.91,0,0,1,1.93-1.91A1.93,1.93,0,0,1,23,86.23v9.08a5.6,5.6,0,0,0,.45,2.24,5.73,5.73,0,0,0,3.06,3.06,5.6,5.6,0,0,0,2.24.45,5.54,5.54,0,0,0,2.22-.45,5.8,5.8,0,0,0,1.84-1.24,5.64,5.64,0,0,0,1.24-1.83,5.52,5.52,0,0,0,.45-2.23V86.23a1.91,1.91,0,0,1,1.93-1.91,1.91,1.91,0,0,1,1.91,1.91V103a1.8,1.8,0,0,1-.56,1.35A1.84,1.84,0,0,1,36.41,104.91Z"/><path class="cls-1" d="M45.05,86.21a9.58,9.58,0,0,1,9.43-1.14,10.27,10.27,0,0,1,3.06,2.05,9.57,9.57,0,0,1,2.09,3,9.11,9.11,0,0,1,.77,3.74V103a1.93,1.93,0,0,1-1.91,1.93A1.93,1.93,0,0,1,56.56,103V93.91a5.42,5.42,0,0,0-.46-2.22,5.81,5.81,0,0,0-1.24-1.83A6,6,0,0,0,53,88.62a5.42,5.42,0,0,0-2.22-.46,5.6,5.6,0,0,0-2.24.45,5.71,5.71,0,0,0-1.82,1.24,5.82,5.82,0,0,0-1.25,1.84,5.58,5.58,0,0,0-.45,2.22V103a1.93,1.93,0,0,1-1.91,1.93A1.93,1.93,0,0,1,41.21,103V86.25a1.88,1.88,0,0,1,.56-1.36,1.86,1.86,0,0,1,1.37-.57,1.93,1.93,0,0,1,1.91,1.89Z"/><path class="cls-1" d="M79,99.08A1.85,1.85,0,0,1,80.86,101a2,2,0,0,1-.6,1.42,10.3,10.3,0,1,1,0-15.59,2,2,0,0,1,.11,2.83A1.81,1.81,0,0,1,79,90.2a2,2,0,0,1-1.25-.44,7.19,7.19,0,0,0-2-1.2,6.07,6.07,0,0,0-2.24-.4,6.24,6.24,0,0,0-2.52.51A6.46,6.46,0,0,0,69,90a6.58,6.58,0,0,0-1.39,2,6.3,6.3,0,0,0-.5,2.52,6.23,6.23,0,0,0,.5,2.52A6.47,6.47,0,0,0,69,99.18,6.65,6.65,0,0,0,71,100.56a6.61,6.61,0,0,0,4.76.11,6.91,6.91,0,0,0,1.95-1.19A2.06,2.06,0,0,1,79,99.08Z"/><path class="cls-1" d="M87.65,92.7H93.4a5.74,5.74,0,0,1,2.36.49A6.15,6.15,0,0,1,99,96.44a6,6,0,0,1,0,4.74,6.15,6.15,0,0,1-3.25,3.25,5.89,5.89,0,0,1-2.36.48H85.73a1.86,1.86,0,0,1-.75-.15,1.95,1.95,0,0,1-1-1,1.85,1.85,0,0,1-.15-.74V86.21a2.23,2.23,0,0,1,.17-.73,2,2,0,0,1,.4-.59,2.15,2.15,0,0,1,.6-.42,1.87,1.87,0,0,1,.76-.15,2,2,0,0,1,.74.14,1.85,1.85,0,0,1,.61.42,2,2,0,0,1,.42.61,1.88,1.88,0,0,1,.15.74Zm5.75,8.36a2.26,2.26,0,0,0,.9-.18,2.31,2.31,0,0,0,.73-.5,2.19,2.19,0,0,0,.47-.72,2.14,2.14,0,0,0,.18-.86,2,2,0,0,0-.19-.87A2.29,2.29,0,0,0,95,97.2a2.46,2.46,0,0,0-.73-.49,2,2,0,0,0-.87-.19H87.65v4.54Zm7.88,1.92V86.25a1.84,1.84,0,0,1,.57-1.37,1.8,1.8,0,0,1,1.35-.56,1.84,1.84,0,0,1,1.35.56,2,2,0,0,1,.58,1.37V103a2,2,0,0,1-.58,1.36,1.85,1.85,0,0,1-1.35.57,1.81,1.81,0,0,1-1.35-.57A1.84,1.84,0,0,1,101.28,103Z"/><path class="cls-1" d="M135.68,104.91a1.8,1.8,0,0,1-1.36-.56,1.87,1.87,0,0,1-.55-1.34,8.58,8.58,0,0,1-2.69,1.44,9.74,9.74,0,0,1-3.07.46,9.13,9.13,0,0,1-3.71-.77A9.8,9.8,0,0,1,119.18,99a9.12,9.12,0,0,1-.76-3.71V86.23a1.8,1.8,0,0,1,.56-1.35,1.92,1.92,0,0,1,3.28,1.35v9.08a5.6,5.6,0,0,0,.45,2.24,5.73,5.73,0,0,0,3.06,3.06,5.78,5.78,0,0,0,4.47,0,5.75,5.75,0,0,0,1.83-1.24,5.83,5.83,0,0,0,1.25-1.83,5.52,5.52,0,0,0,.45-2.23V86.23a1.8,1.8,0,0,1,.56-1.35,1.92,1.92,0,0,1,3.28,1.35V103a1.93,1.93,0,0,1-1.93,1.92Z"/><path class="cls-1" d="M144.21,99.5a3.94,3.94,0,0,0,.84.83,4.61,4.61,0,0,0,2.65.73,4.25,4.25,0,0,0,2.61-.77,2.11,2.11,0,0,0,1.05-1.65,2.48,2.48,0,0,0-1.06-1.94,4,4,0,0,0-2.6-.86,1.91,1.91,0,0,1-1.91-1.91A1.91,1.91,0,0,1,147.7,92a5.64,5.64,0,0,0,2.63-.54c.68-.36,1-.76,1-1.21a1.75,1.75,0,0,0-1-1.46,5.08,5.08,0,0,0-2.62-.61,4.76,4.76,0,0,0-2.65.71,3.27,3.27,0,0,0-.77.8A4.28,4.28,0,0,1,144,90a1.92,1.92,0,0,1-3-2.38,6.55,6.55,0,0,1,1.43-1.58,8.23,8.23,0,0,1,5.26-1.72A8.45,8.45,0,0,1,153,86a5.1,5.1,0,0,1,2.22,4.24,4,4,0,0,1-2,3.75,5.89,5.89,0,0,1,2,4.64,5.61,5.61,0,0,1-2.21,4.41,7.93,7.93,0,0,1-5.29,1.86,8.2,8.2,0,0,1-5.26-1.75,6.56,6.56,0,0,1-1.32-1.38,1.83,1.83,0,0,1-.37-1.14,1.88,1.88,0,0,1,.56-1.36,1.85,1.85,0,0,1,1.35-.57A1.78,1.78,0,0,1,144.21,99.5Z"/><path class="cls-1" d="M180.47,103.49l-3.73-11.17-3.86,11.52a1.56,1.56,0,0,1-.61.75,1.9,1.9,0,0,1-1.12.32,1.86,1.86,0,0,1-.75-.15,1.91,1.91,0,0,1-1-1,1.83,1.83,0,0,1-.15-.73,2.69,2.69,0,0,1,.13-.74l5.57-16.69a1.83,1.83,0,0,1,.67-.89,1.91,1.91,0,0,1,1.13-.34,1.94,1.94,0,0,1,1.14.34,1.69,1.69,0,0,1,.66.89l3.79,11.35,3.79-11.35a1.71,1.71,0,0,1,.64-.87,1.89,1.89,0,0,1,1.14-.36,1.92,1.92,0,0,1,1.2.34,1.82,1.82,0,0,1,.6.89l5.57,16.69a2,2,0,0,1,.15.74,1.69,1.69,0,0,1-.16.73,2,2,0,0,1-.41.61,1.75,1.75,0,0,1-.61.42,1.86,1.86,0,0,1-.75.15,2,2,0,0,1-1.14-.3,1.36,1.36,0,0,1-.59-.77L187.9,92.31l-3.73,11.18a1.92,1.92,0,0,1-3.7,0Z"/><path class="cls-1" d="M219.17,94.61a9.83,9.83,0,0,1-3,7.28,10,10,0,0,1-7.28,3,10.3,10.3,0,1,1,7.28-17.58,10.2,10.2,0,0,1,2.26,3.33A10.64,10.64,0,0,1,219.17,94.61Zm-10.3-6.45a6.28,6.28,0,0,0-2.53.51,6.53,6.53,0,0,0-2,1.39,6.41,6.41,0,0,0-1.37,2,6.46,6.46,0,0,0,1.37,7,6.36,6.36,0,0,0,2,1.39,6.51,6.51,0,0,0,5,0,6.38,6.38,0,0,0,2.05-1.4,6.73,6.73,0,0,0,1.38-2.05,6.33,6.33,0,0,0,0-5,6.73,6.73,0,0,0-1.38-2.05,6.55,6.55,0,0,0-2.05-1.4A6.24,6.24,0,0,0,208.87,88.16Z"/><path class="cls-1" d="M232.4,104.91a9.87,9.87,0,0,1-6.45-2.27v9.18a1.85,1.85,0,0,1-.56,1.37,1.89,1.89,0,0,1-1.37.54,1.85,1.85,0,0,1-1.91-1.91V94.61a10.33,10.33,0,0,1,19.83-4,10.16,10.16,0,0,1,.76,4,9.83,9.83,0,0,1-3,7.28,10.47,10.47,0,0,1-3.35,2.27A10.19,10.19,0,0,1,232.4,104.91ZM226,94.61a6.21,6.21,0,0,0,.51,2.5,6.4,6.4,0,0,0,5.94,4,6.24,6.24,0,0,0,2.52-.51,6.38,6.38,0,0,0,2.05-1.4,6.73,6.73,0,0,0,1.38-2.05,6.33,6.33,0,0,0,0-5A6.73,6.73,0,0,0,237,90.07a6.55,6.55,0,0,0-2.05-1.4,6.51,6.51,0,0,0-5,0,6.53,6.53,0,0,0-2,1.39,6.41,6.41,0,0,0-1.37,2A6.25,6.25,0,0,0,226,94.61Z"/><path class="cls-1" d="M259.33,84.32a2.14,2.14,0,0,1,.76.14,1.81,1.81,0,0,1,.6.42,2.37,2.37,0,0,1,.42.61,1.88,1.88,0,0,1,.15.74V103a1.85,1.85,0,0,1-.15.74,2.21,2.21,0,0,1-.42.61,1.81,1.81,0,0,1-.6.42,1.94,1.94,0,0,1-.76.15,1.83,1.83,0,0,1-.73-.15,1.89,1.89,0,0,1-.62-.42,1.82,1.82,0,0,1-.41-.61,1.85,1.85,0,0,1-.15-.74V96.52h-3.66a2.27,2.27,0,0,0-2,1.27l-3.2,6a1.89,1.89,0,0,1-1.74,1.16,1.94,1.94,0,0,1-.76-.15,1.81,1.81,0,0,1-.6-.42,2,2,0,0,1-.41-.61,2,2,0,0,1-.14-.74,1.91,1.91,0,0,1,.27-1l3.18-6a3.6,3.6,0,0,1,.39-.62,11,11,0,0,1-1.07-1.11,6,6,0,0,1-.76-1.14,5.18,5.18,0,0,1-.46-1.25,6.45,6.45,0,0,1-.16-1.43,5.93,5.93,0,0,1,.49-2.38,6.21,6.21,0,0,1,1.31-1.94A6.12,6.12,0,0,1,250,84.8a5.94,5.94,0,0,1,2.37-.48Zm-1.91,8.38V88.16h-5.05a2.17,2.17,0,0,0-.92.19,2.26,2.26,0,0,0-.73.52,2.3,2.3,0,0,0-.47.72,2.19,2.19,0,0,0-.16.83,2.11,2.11,0,0,0,.17.87,2.29,2.29,0,0,0,.49.73,2.58,2.58,0,0,0,.72.5,2.26,2.26,0,0,0,.9.18Z"/></g></g></svg>