<svg width="1480" height="785" viewBox="0 0 1480 785" fill="none" xmlns="http://www.w3.org/2000/svg">
<path d="M-275.522 581.62L-58.8612 492.257C124.726 416.535 335.787 457.708 477.455 596.878V596.878C651.756 768.106 926.723 785.361 1122.69 639.43V639.43C1277.68 524.014 1486.68 507.108 1657.41 597.638L1927.67 740.952" stroke="black" stroke-opacity="0.03" stroke-width="30"/>
<path d="M-267.369 468.878L-50.7082 379.515C132.879 303.794 343.94 344.966 485.608 484.136V484.136C659.909 655.364 934.876 672.619 1130.85 526.688V526.688C1285.84 411.273 1494.83 394.366 1665.56 484.897L1935.83 628.211" stroke="black" stroke-opacity="0.03" stroke-width="30"/>
<path d="M-247.307 358.451L-30.6462 269.088C152.941 193.366 364.002 234.539 505.67 373.709V373.709C679.971 544.937 954.938 562.192 1150.91 416.261V416.261C1305.9 300.845 1514.9 283.939 1685.62 374.469L1955.89 517.783" stroke="black" stroke-opacity="0.03" stroke-width="30"/>
<path d="M-259.083 250.472L-42.4215 161.109C141.166 85.3873 352.227 126.56 493.895 265.73V265.73C668.195 436.958 943.162 454.213 1139.13 308.282V308.282C1294.12 192.866 1503.12 175.96 1673.85 266.49L1944.11 409.804" stroke="black" stroke-opacity="0.03" stroke-width="30"/>
</svg>
