<svg width="1480" height="665" viewBox="0 0 1480 665" fill="none" xmlns="http://www.w3.org/2000/svg">
<path d="M-267.427 1100.32L-89.1749 948.159C61.8669 819.223 275.288 792.892 453.139 881.251V881.251C671.957 989.963 938.712 921.07 1079.75 721.547V721.547C1191.29 563.746 1384.73 482.841 1575.12 515.946L1876.51 568.351" stroke="black" stroke-opacity="0.03" stroke-width="30"/>
<path d="M-294.649 990.614L-116.397 838.45C34.6446 709.514 248.065 683.183 425.916 771.541V771.541C644.735 880.253 911.49 811.361 1052.52 611.838V611.838C1164.07 454.036 1357.51 373.132 1547.9 406.236L1849.29 458.642" stroke="black" stroke-opacity="0.03" stroke-width="30"/>
<path d="M-309.832 879.411L-131.58 727.247C19.4617 598.31 232.883 571.979 410.733 660.338V660.338C629.552 769.05 896.307 700.157 1037.34 500.635V500.635C1148.88 342.833 1342.33 261.929 1532.71 295.033L1834.11 347.438" stroke="black" stroke-opacity="0.03" stroke-width="30"/>
<path d="M-354.522 780.411L-176.27 628.247C-25.2285 499.311 188.192 472.98 366.043 561.339V561.339C584.862 670.051 851.617 601.158 992.65 401.635V401.635C1104.19 243.834 1297.64 162.929 1488.02 196.034L1789.42 248.439" stroke="black" stroke-opacity="0.03" stroke-width="30"/>
</svg>
