<svg width="1480" height="1103" viewBox="0 0 1480 1103" fill="none" xmlns="http://www.w3.org/2000/svg">
<path d="M-380.427 973.323L-202.175 821.159C-51.1331 692.223 162.288 665.892 340.139 754.251V754.251C558.957 862.963 825.712 794.07 966.746 594.547V594.547C1078.29 436.746 1271.73 355.842 1462.12 388.946L1763.51 441.351" stroke="black" stroke-opacity="0.03" stroke-width="30"/>
<path d="M-407.649 863.614L-229.397 711.45C-78.3554 582.513 135.065 556.183 312.916 644.541V644.541C531.735 753.253 798.49 684.361 939.523 484.838V484.838C1051.07 327.036 1244.51 246.132 1434.9 279.236L1736.29 331.642" stroke="black" stroke-opacity="0.03" stroke-width="30"/>
<path d="M-422.832 752.411L-244.58 600.247C-93.5383 471.31 119.883 444.979 297.733 533.338V533.338C516.552 642.05 783.307 573.157 924.34 373.635V373.635C1035.88 215.833 1229.33 134.929 1419.71 168.033L1721.11 220.438" stroke="black" stroke-opacity="0.03" stroke-width="30"/>
<path d="M-467.522 653.411L-289.27 501.247C-138.228 372.311 75.1924 345.98 253.043 434.339V434.339C471.862 543.051 738.617 474.158 879.65 274.635V274.635C991.193 116.834 1184.64 35.9294 1375.02 69.0335L1676.42 121.439" stroke="black" stroke-opacity="0.03" stroke-width="30"/>
</svg>
